<svg width="318" height="82" viewBox="0 0 318 82" fill="none" xmlns="http://www.w3.org/2000/svg">
<g clip-path="url(#clip0_1222_3707)">
<path d="M30.781 16.2813L26.0473 21.018L11.8432 6.81388L7.10652 11.5476L2.37283 16.2813L7.10652 21.015L11.8402 25.7516L16.5769 30.4853L11.8432 35.222L7.10652 39.9557L2.37283 44.6894L0 42.3166V32.8492L2.37283 35.219L7.10652 30.4853L0 23.3788V6H20.4997L21.3106 6.81089L26.0443 11.5476L30.781 16.2813Z" fill="white"/>
<path d="M54.4554 21.018L49.7187 25.7516L44.985 21.015L40.2484 25.7516L35.5147 30.4853L30.781 35.219L26.0443 39.9557L11.8402 54.1598L7.10652 58.8935L11.8432 63.6302L9.47038 66H4.74566L2.37283 63.6272L0 61.2573V51.787L2.37283 54.1598L7.10652 49.4231L11.8402 44.6894L16.5769 39.9557L21.3106 35.219L26.0443 30.4853L30.781 25.7516L35.5147 21.015L40.2484 16.2813L35.5147 11.5476L30.781 6.81089L31.5919 6H39.4375L54.4554 21.018Z" fill="#CCD5EC"/>
<path d="M60 7.62178V15.4704L59.1891 16.2813L54.4524 11.5476L49.7188 6.81089L50.5296 6H58.3752L59.1891 6.81089L60 7.62178Z" fill="#385161"/>
<path d="M60.0006 26.5626V34.4082L59.1897 35.2191L54.453 39.9558L49.7193 44.6895L40.252 35.2221L44.9856 30.4854L49.7193 35.2191L54.453 30.4854L59.1897 25.7517L60.0006 26.5626Z" fill="#385161"/>
<path d="M54.4554 49.4261L49.7187 54.1598L44.985 58.8934L40.2513 63.6301L21.3105 44.6894L26.0442 39.9557L30.7809 44.6894L35.5146 49.4231L40.2483 54.1598L49.7187 44.6894L54.4554 49.4261Z" fill="#385161"/>
<path d="M59.9998 54.9707V62.8163L56.8161 66H47.3457L49.7185 63.6272L54.4522 58.8935L59.1889 54.1598L59.9998 54.9707Z" fill="white"/>
</g>
<path d="M91.584 26.168C90.352 26.168 89.248 25.968 88.272 25.568C87.296 25.168 86.512 24.576 85.92 23.792C85.344 23.008 85.04 22.064 85.008 20.96H89.376C89.44 21.584 89.656 22.064 90.024 22.4C90.392 22.72 90.872 22.88 91.464 22.88C92.072 22.88 92.552 22.744 92.904 22.472C93.256 22.184 93.432 21.792 93.432 21.296C93.432 20.88 93.288 20.536 93 20.264C92.728 19.992 92.384 19.768 91.968 19.592C91.568 19.416 90.992 19.216 90.24 18.992C89.152 18.656 88.264 18.32 87.576 17.984C86.888 17.648 86.296 17.152 85.8 16.496C85.304 15.84 85.056 14.984 85.056 13.928C85.056 12.36 85.624 11.136 86.76 10.256C87.896 9.36 89.376 8.912 91.2 8.912C93.056 8.912 94.552 9.36 95.688 10.256C96.824 11.136 97.432 12.368 97.512 13.952H93.072C93.04 13.408 92.84 12.984 92.472 12.68C92.104 12.36 91.632 12.2 91.056 12.2C90.56 12.2 90.16 12.336 89.856 12.608C89.552 12.864 89.4 13.24 89.4 13.736C89.4 14.28 89.656 14.704 90.168 15.008C90.68 15.312 91.48 15.64 92.568 15.992C93.656 16.36 94.536 16.712 95.208 17.048C95.896 17.384 96.488 17.872 96.984 18.512C97.48 19.152 97.728 19.976 97.728 20.984C97.728 21.944 97.48 22.816 96.984 23.6C96.504 24.384 95.8 25.008 94.872 25.472C93.944 25.936 92.848 26.168 91.584 26.168ZM102.318 11.216C101.598 11.216 101.006 11.008 100.542 10.592C100.094 10.16 99.8696 9.632 99.8696 9.008C99.8696 8.368 100.094 7.84 100.542 7.424C101.006 6.992 101.598 6.776 102.318 6.776C103.022 6.776 103.598 6.992 104.046 7.424C104.51 7.84 104.742 8.368 104.742 9.008C104.742 9.632 104.51 10.16 104.046 10.592C103.598 11.008 103.022 11.216 102.318 11.216ZM104.358 12.608V26H100.254V12.608H104.358ZM112.78 26.192C111.612 26.192 110.572 25.992 109.66 25.592C108.748 25.192 108.028 24.648 107.5 23.96C106.972 23.256 106.676 22.472 106.612 21.608H110.668C110.716 22.072 110.932 22.448 111.316 22.736C111.7 23.024 112.172 23.168 112.732 23.168C113.244 23.168 113.636 23.072 113.908 22.88C114.196 22.672 114.34 22.408 114.34 22.088C114.34 21.704 114.14 21.424 113.74 21.248C113.34 21.056 112.692 20.848 111.796 20.624C110.836 20.4 110.036 20.168 109.396 19.928C108.756 19.672 108.204 19.28 107.74 18.752C107.276 18.208 107.044 17.48 107.044 16.568C107.044 15.8 107.252 15.104 107.668 14.48C108.1 13.84 108.724 13.336 109.54 12.968C110.372 12.6 111.356 12.416 112.492 12.416C114.172 12.416 115.492 12.832 116.452 13.664C117.428 14.496 117.988 15.6 118.132 16.976H114.34C114.276 16.512 114.068 16.144 113.716 15.872C113.38 15.6 112.932 15.464 112.372 15.464C111.892 15.464 111.524 15.56 111.268 15.752C111.012 15.928 110.884 16.176 110.884 16.496C110.884 16.88 111.084 17.168 111.484 17.36C111.9 17.552 112.54 17.744 113.404 17.936C114.396 18.192 115.204 18.448 115.828 18.704C116.452 18.944 116.996 19.344 117.46 19.904C117.94 20.448 118.188 21.184 118.204 22.112C118.204 22.896 117.98 23.6 117.532 24.224C117.1 24.832 116.468 25.312 115.636 25.664C114.82 26.016 113.868 26.192 112.78 26.192ZM128.179 22.52V26H126.091C124.603 26 123.443 25.64 122.611 24.92C121.779 24.184 121.363 22.992 121.363 21.344V16.016H119.731V12.608H121.363V9.344H125.467V12.608H128.155V16.016H125.467V21.392C125.467 21.792 125.563 22.08 125.755 22.256C125.947 22.432 126.267 22.52 126.715 22.52H128.179ZM143.089 19.088C143.089 19.472 143.065 19.872 143.017 20.288H133.729C133.793 21.12 134.057 21.76 134.521 22.208C135.001 22.64 135.585 22.856 136.273 22.856C137.297 22.856 138.009 22.424 138.409 21.56H142.777C142.553 22.44 142.145 23.232 141.553 23.936C140.977 24.64 140.249 25.192 139.369 25.592C138.489 25.992 137.505 26.192 136.417 26.192C135.105 26.192 133.937 25.912 132.913 25.352C131.889 24.792 131.089 23.992 130.513 22.952C129.937 21.912 129.649 20.696 129.649 19.304C129.649 17.912 129.929 16.696 130.489 15.656C131.065 14.616 131.865 13.816 132.889 13.256C133.913 12.696 135.089 12.416 136.417 12.416C137.713 12.416 138.865 12.688 139.873 13.232C140.881 13.776 141.665 14.552 142.225 15.56C142.801 16.568 143.089 17.744 143.089 19.088ZM138.889 18.008C138.889 17.304 138.649 16.744 138.169 16.328C137.689 15.912 137.089 15.704 136.369 15.704C135.681 15.704 135.097 15.904 134.617 16.304C134.153 16.704 133.865 17.272 133.753 18.008H138.889ZM162.342 12.464C164.006 12.464 165.326 12.968 166.302 13.976C167.294 14.984 167.79 16.384 167.79 18.176V26H163.71V18.728C163.71 17.864 163.478 17.2 163.014 16.736C162.566 16.256 161.942 16.016 161.142 16.016C160.342 16.016 159.71 16.256 159.246 16.736C158.798 17.2 158.574 17.864 158.574 18.728V26H154.494V18.728C154.494 17.864 154.262 17.2 153.798 16.736C153.35 16.256 152.726 16.016 151.926 16.016C151.126 16.016 150.494 16.256 150.03 16.736C149.582 17.2 149.358 17.864 149.358 18.728V26H145.254V12.608H149.358V14.288C149.774 13.728 150.318 13.288 150.99 12.968C151.662 12.632 152.422 12.464 153.27 12.464C154.278 12.464 155.174 12.68 155.958 13.112C156.758 13.544 157.382 14.16 157.83 14.96C158.294 14.224 158.926 13.624 159.726 13.16C160.526 12.696 161.398 12.464 162.342 12.464ZM179.85 9.152V26H175.746V9.152H179.85ZM190.984 12.464C192.552 12.464 193.8 12.976 194.728 14C195.672 15.008 196.144 16.4 196.144 18.176V26H192.064V18.728C192.064 17.832 191.832 17.136 191.368 16.64C190.904 16.144 190.28 15.896 189.496 15.896C188.712 15.896 188.088 16.144 187.624 16.64C187.16 17.136 186.928 17.832 186.928 18.728V26H182.824V12.608H186.928V14.384C187.344 13.792 187.904 13.328 188.608 12.992C189.312 12.64 190.104 12.464 190.984 12.464ZM205.02 22.16L207.924 12.608H212.292L207.54 26H202.476L197.724 12.608H202.116L205.02 22.16ZM226.643 19.088C226.643 19.472 226.619 19.872 226.571 20.288H217.283C217.347 21.12 217.611 21.76 218.075 22.208C218.555 22.64 219.139 22.856 219.827 22.856C220.851 22.856 221.563 22.424 221.963 21.56H226.331C226.107 22.44 225.699 23.232 225.107 23.936C224.531 24.64 223.803 25.192 222.923 25.592C222.043 25.992 221.059 26.192 219.971 26.192C218.659 26.192 217.491 25.912 216.467 25.352C215.443 24.792 214.643 23.992 214.067 22.952C213.491 21.912 213.203 20.696 213.203 19.304C213.203 17.912 213.483 16.696 214.043 15.656C214.619 14.616 215.419 13.816 216.443 13.256C217.467 12.696 218.643 12.416 219.971 12.416C221.267 12.416 222.419 12.688 223.427 13.232C224.435 13.776 225.219 14.552 225.779 15.56C226.355 16.568 226.643 17.744 226.643 19.088ZM222.443 18.008C222.443 17.304 222.203 16.744 221.723 16.328C221.243 15.912 220.643 15.704 219.923 15.704C219.235 15.704 218.651 15.904 218.171 16.304C217.707 16.704 217.419 17.272 217.307 18.008H222.443ZM236.968 12.464C238.536 12.464 239.784 12.976 240.712 14C241.656 15.008 242.128 16.4 242.128 18.176V26H238.048V18.728C238.048 17.832 237.816 17.136 237.352 16.64C236.888 16.144 236.264 15.896 235.48 15.896C234.696 15.896 234.072 16.144 233.608 16.64C233.144 17.136 232.912 17.832 232.912 18.728V26H228.808V12.608H232.912V14.384C233.328 13.792 233.888 13.328 234.592 12.992C235.296 12.64 236.088 12.464 236.968 12.464ZM252.444 22.52V26H250.356C248.868 26 247.708 25.64 246.876 24.92C246.044 24.184 245.628 22.992 245.628 21.344V16.016H243.996V12.608H245.628V9.344H249.732V12.608H252.42V16.016H249.732V21.392C249.732 21.792 249.828 22.08 250.02 22.256C250.212 22.432 250.532 22.52 250.98 22.52H252.444ZM260.826 26.192C259.514 26.192 258.33 25.912 257.274 25.352C256.234 24.792 255.41 23.992 254.802 22.952C254.21 21.912 253.914 20.696 253.914 19.304C253.914 17.928 254.218 16.72 254.826 15.68C255.434 14.624 256.266 13.816 257.322 13.256C258.378 12.696 259.562 12.416 260.874 12.416C262.186 12.416 263.37 12.696 264.426 13.256C265.482 13.816 266.314 14.624 266.922 15.68C267.53 16.72 267.834 17.928 267.834 19.304C267.834 20.68 267.522 21.896 266.898 22.952C266.29 23.992 265.45 24.792 264.378 25.352C263.322 25.912 262.138 26.192 260.826 26.192ZM260.826 22.64C261.61 22.64 262.274 22.352 262.818 21.776C263.378 21.2 263.658 20.376 263.658 19.304C263.658 18.232 263.386 17.408 262.842 16.832C262.314 16.256 261.658 15.968 260.874 15.968C260.074 15.968 259.41 16.256 258.882 16.832C258.354 17.392 258.09 18.216 258.09 19.304C258.09 20.376 258.346 21.2 258.858 21.776C259.386 22.352 260.042 22.64 260.826 22.64ZM274.115 14.84C274.595 14.104 275.195 13.528 275.915 13.112C276.635 12.68 277.435 12.464 278.315 12.464V16.808H277.187C276.163 16.808 275.395 17.032 274.883 17.48C274.371 17.912 274.115 18.68 274.115 19.784V26H270.011V12.608H274.115V14.84ZM282.341 11.216C281.621 11.216 281.029 11.008 280.565 10.592C280.117 10.16 279.893 9.632 279.893 9.008C279.893 8.368 280.117 7.84 280.565 7.424C281.029 6.992 281.621 6.776 282.341 6.776C283.045 6.776 283.621 6.992 284.069 7.424C284.533 7.84 284.765 8.368 284.765 9.008C284.765 9.632 284.533 10.16 284.069 10.592C283.621 11.008 283.045 11.216 282.341 11.216ZM284.381 12.608V26H280.277V12.608H284.381ZM95.688 53.36C96.664 53.568 97.448 54.056 98.04 54.824C98.632 55.576 98.928 56.44 98.928 57.416C98.928 58.824 98.432 59.944 97.44 60.776C96.464 61.592 95.096 62 93.336 62H85.488V45.152H93.072C94.784 45.152 96.12 45.544 97.08 46.328C98.056 47.112 98.544 48.176 98.544 49.52C98.544 50.512 98.28 51.336 97.752 51.992C97.24 52.648 96.552 53.104 95.688 53.36ZM89.592 51.968H92.28C92.952 51.968 93.464 51.824 93.816 51.536C94.184 51.232 94.368 50.792 94.368 50.216C94.368 49.64 94.184 49.2 93.816 48.896C93.464 48.592 92.952 48.44 92.28 48.44H89.592V51.968ZM92.616 58.688C93.304 58.688 93.832 58.536 94.2 58.232C94.584 57.912 94.776 57.456 94.776 56.864C94.776 56.272 94.576 55.808 94.176 55.472C93.792 55.136 93.256 54.968 92.568 54.968H89.592V58.688H92.616ZM100.492 55.28C100.492 53.904 100.748 52.696 101.26 51.656C101.788 50.616 102.5 49.816 103.396 49.256C104.292 48.696 105.292 48.416 106.396 48.416C107.34 48.416 108.164 48.608 108.868 48.992C109.588 49.376 110.14 49.88 110.524 50.504V48.608H114.628V62H110.524V60.104C110.124 60.728 109.564 61.232 108.844 61.616C108.14 62 107.316 62.192 106.372 62.192C105.284 62.192 104.292 61.912 103.396 61.352C102.5 60.776 101.788 59.968 101.26 58.928C100.748 57.872 100.492 56.656 100.492 55.28ZM110.524 55.304C110.524 54.28 110.236 53.472 109.66 52.88C109.1 52.288 108.412 51.992 107.596 51.992C106.78 51.992 106.084 52.288 105.508 52.88C104.948 53.456 104.668 54.256 104.668 55.28C104.668 56.304 104.948 57.12 105.508 57.728C106.084 58.32 106.78 58.616 107.596 58.616C108.412 58.616 109.1 58.32 109.66 57.728C110.236 57.136 110.524 56.328 110.524 55.304ZM121.701 50.84C122.181 50.104 122.781 49.528 123.501 49.112C124.221 48.68 125.021 48.464 125.901 48.464V52.808H124.773C123.749 52.808 122.981 53.032 122.469 53.48C121.957 53.912 121.701 54.68 121.701 55.784V62H117.597V48.608H121.701V50.84ZM127.047 55.28C127.047 53.904 127.303 52.696 127.815 51.656C128.343 50.616 129.055 49.816 129.951 49.256C130.847 48.696 131.847 48.416 132.951 48.416C133.895 48.416 134.719 48.608 135.423 48.992C136.143 49.376 136.695 49.88 137.079 50.504V48.608H141.183V62H137.079V60.104C136.679 60.728 136.119 61.232 135.399 61.616C134.695 62 133.871 62.192 132.927 62.192C131.839 62.192 130.847 61.912 129.951 61.352C129.055 60.776 128.343 59.968 127.815 58.928C127.303 57.872 127.047 56.656 127.047 55.28ZM137.079 55.304C137.079 54.28 136.791 53.472 136.215 52.88C135.655 52.288 134.967 51.992 134.151 51.992C133.335 51.992 132.639 52.288 132.063 52.88C131.503 53.456 131.223 54.256 131.223 55.28C131.223 56.304 131.503 57.12 132.063 57.728C132.639 58.32 133.335 58.616 134.151 58.616C134.967 58.616 135.655 58.32 136.215 57.728C136.791 57.136 137.079 56.328 137.079 55.304ZM152.312 48.464C153.88 48.464 155.128 48.976 156.056 50C157 51.008 157.472 52.4 157.472 54.176V62H153.392V54.728C153.392 53.832 153.16 53.136 152.696 52.64C152.232 52.144 151.608 51.896 150.824 51.896C150.04 51.896 149.416 52.144 148.952 52.64C148.488 53.136 148.256 53.832 148.256 54.728V62H144.152V48.608H148.256V50.384C148.672 49.792 149.232 49.328 149.936 48.992C150.64 48.64 151.432 48.464 152.312 48.464ZM165.412 48.416C166.356 48.416 167.18 48.608 167.884 48.992C168.604 49.376 169.156 49.88 169.54 50.504V48.608H173.644V61.976C173.644 63.208 173.396 64.32 172.9 65.312C172.42 66.32 171.676 67.12 170.668 67.712C169.676 68.304 168.436 68.6 166.948 68.6C164.964 68.6 163.356 68.128 162.124 67.184C160.892 66.256 160.188 64.992 160.012 63.392H164.068C164.196 63.904 164.5 64.304 164.98 64.592C165.46 64.896 166.052 65.048 166.756 65.048C167.604 65.048 168.276 64.8 168.772 64.304C169.284 63.824 169.54 63.048 169.54 61.976V60.08C169.14 60.704 168.588 61.216 167.884 61.616C167.18 62 166.356 62.192 165.412 62.192C164.308 62.192 163.308 61.912 162.412 61.352C161.516 60.776 160.804 59.968 160.276 58.928C159.764 57.872 159.508 56.656 159.508 55.28C159.508 53.904 159.764 52.696 160.276 51.656C160.804 50.616 161.516 49.816 162.412 49.256C163.308 48.696 164.308 48.416 165.412 48.416ZM169.54 55.304C169.54 54.28 169.252 53.472 168.676 52.88C168.116 52.288 167.428 51.992 166.612 51.992C165.796 51.992 165.1 52.288 164.524 52.88C163.964 53.456 163.684 54.256 163.684 55.28C163.684 56.304 163.964 57.12 164.524 57.728C165.1 58.32 165.796 58.616 166.612 58.616C167.428 58.616 168.116 58.32 168.676 57.728C169.252 57.136 169.54 56.328 169.54 55.304ZM185.803 45.152V62H181.699V45.152H185.803ZM188.081 53.552C188.081 51.888 188.441 50.408 189.161 49.112C189.881 47.8 190.881 46.784 192.161 46.064C193.457 45.328 194.921 44.96 196.553 44.96C198.553 44.96 200.265 45.488 201.689 46.544C203.113 47.6 204.065 49.04 204.545 50.864H200.033C199.697 50.16 199.217 49.624 198.593 49.256C197.985 48.888 197.289 48.704 196.505 48.704C195.241 48.704 194.217 49.144 193.433 50.024C192.649 50.904 192.257 52.08 192.257 53.552C192.257 55.024 192.649 56.2 193.433 57.08C194.217 57.96 195.241 58.4 196.505 58.4C197.289 58.4 197.985 58.216 198.593 57.848C199.217 57.48 199.697 56.944 200.033 56.24H204.545C204.065 58.064 203.113 59.504 201.689 60.56C200.265 61.6 198.553 62.12 196.553 62.12C194.921 62.12 193.457 61.76 192.161 61.04C190.881 60.304 189.881 59.288 189.161 57.992C188.441 56.696 188.081 55.216 188.081 53.552ZM211.162 58.832H216.538V62H207.058V45.152H211.162V58.832ZM217.68 55.28C217.68 53.904 217.936 52.696 218.448 51.656C218.976 50.616 219.688 49.816 220.584 49.256C221.48 48.696 222.48 48.416 223.584 48.416C224.528 48.416 225.352 48.608 226.056 48.992C226.776 49.376 227.328 49.88 227.712 50.504V48.608H231.816V62H227.712V60.104C227.312 60.728 226.752 61.232 226.032 61.616C225.328 62 224.504 62.192 223.56 62.192C222.472 62.192 221.48 61.912 220.584 61.352C219.688 60.776 218.976 59.968 218.448 58.928C217.936 57.872 217.68 56.656 217.68 55.28ZM227.712 55.304C227.712 54.28 227.424 53.472 226.848 52.88C226.288 52.288 225.6 51.992 224.784 51.992C223.968 51.992 223.272 52.288 222.696 52.88C222.136 53.456 221.856 54.256 221.856 55.28C221.856 56.304 222.136 57.12 222.696 57.728C223.272 58.32 223.968 58.616 224.784 58.616C225.6 58.616 226.288 58.32 226.848 57.728C227.424 57.136 227.712 56.328 227.712 55.304ZM238.889 50.504C239.273 49.88 239.825 49.376 240.545 48.992C241.265 48.608 242.089 48.416 243.017 48.416C244.121 48.416 245.121 48.696 246.017 49.256C246.913 49.816 247.617 50.616 248.129 51.656C248.657 52.696 248.921 53.904 248.921 55.28C248.921 56.656 248.657 57.872 248.129 58.928C247.617 59.968 246.913 60.776 246.017 61.352C245.121 61.912 244.121 62.192 243.017 62.192C242.073 62.192 241.249 62.008 240.545 61.64C239.841 61.256 239.289 60.752 238.889 60.128V62H234.785V44.24H238.889V50.504ZM244.745 55.28C244.745 54.256 244.457 53.456 243.881 52.88C243.321 52.288 242.625 51.992 241.793 51.992C240.977 51.992 240.281 52.288 239.705 52.88C239.145 53.472 238.865 54.28 238.865 55.304C238.865 56.328 239.145 57.136 239.705 57.728C240.281 58.32 240.977 58.616 241.793 58.616C242.609 58.616 243.305 58.32 243.881 57.728C244.457 57.12 244.745 56.304 244.745 55.28ZM256.522 62.192C255.354 62.192 254.314 61.992 253.402 61.592C252.49 61.192 251.77 60.648 251.242 59.96C250.714 59.256 250.418 58.472 250.354 57.608H254.41C254.458 58.072 254.674 58.448 255.058 58.736C255.442 59.024 255.914 59.168 256.474 59.168C256.986 59.168 257.378 59.072 257.65 58.88C257.938 58.672 258.082 58.408 258.082 58.088C258.082 57.704 257.882 57.424 257.482 57.248C257.082 57.056 256.434 56.848 255.538 56.624C254.578 56.4 253.778 56.168 253.138 55.928C252.498 55.672 251.946 55.28 251.482 54.752C251.018 54.208 250.786 53.48 250.786 52.568C250.786 51.8 250.994 51.104 251.41 50.48C251.842 49.84 252.466 49.336 253.282 48.968C254.114 48.6 255.098 48.416 256.234 48.416C257.914 48.416 259.234 48.832 260.194 49.664C261.17 50.496 261.73 51.6 261.874 52.976H258.082C258.018 52.512 257.81 52.144 257.458 51.872C257.122 51.6 256.674 51.464 256.114 51.464C255.634 51.464 255.266 51.56 255.01 51.752C254.754 51.928 254.626 52.176 254.626 52.496C254.626 52.88 254.826 53.168 255.226 53.36C255.642 53.552 256.282 53.744 257.146 53.936C258.138 54.192 258.946 54.448 259.57 54.704C260.194 54.944 260.738 55.344 261.202 55.904C261.682 56.448 261.93 57.184 261.946 58.112C261.946 58.896 261.722 59.6 261.274 60.224C260.842 60.832 260.21 61.312 259.378 61.664C258.562 62.016 257.61 62.192 256.522 62.192Z" fill="white"/>
<defs>
<clipPath id="clip0_1222_3707">
<rect width="60" height="60" fill="white" transform="translate(0 6)"/>
</clipPath>
</defs>
</svg>
