<svg width="284" height="72" viewBox="0 0 284 72" fill="none" xmlns="http://www.w3.org/2000/svg">
<g clip-path="url(#clip0_854_12953)">
<path d="M30.781 16.2813L26.0473 21.018L11.8432 6.81388L7.10652 11.5476L2.37283 16.2813L7.10652 21.015L11.8402 25.7516L16.5769 30.4853L11.8432 35.222L7.10652 39.9557L2.37283 44.6894L0 42.3166V32.8492L2.37283 35.219L7.10652 30.4853L0 23.3788V6H20.4997L21.3106 6.81089L26.0443 11.5476L30.781 16.2813Z" fill="#0C1740"/>
<path d="M54.4554 21.018L49.7187 25.7516L44.985 21.015L40.2484 25.7516L35.5147 30.4853L30.781 35.219L26.0443 39.9557L11.8402 54.1598L7.10652 58.8935L11.8432 63.6302L9.47038 66H4.74566L2.37283 63.6272L0 61.2573V51.787L2.37283 54.1598L7.10652 49.4231L11.8402 44.6894L16.5769 39.9557L21.3106 35.219L26.0443 30.4853L30.781 25.7516L35.5147 21.015L40.2484 16.2813L35.5147 11.5476L30.781 6.81089L31.5919 6H39.4375L54.4554 21.018Z" fill="#CCD5EC"/>
<path d="M60 7.62178V15.4704L59.1891 16.2813L54.4524 11.5476L49.7188 6.81089L50.5296 6H58.3752L59.1891 6.81089L60 7.62178Z" fill="#385161"/>
<path d="M60.0006 26.5625V34.4081L59.1897 35.219L54.453 39.9557L49.7193 44.6894L40.252 35.222L44.9856 30.4853L49.7193 35.219L54.453 30.4853L59.1897 25.7516L60.0006 26.5625Z" fill="#385161"/>
<path d="M54.4554 49.4261L49.7187 54.1598L44.985 58.8935L40.2513 63.6302L21.3105 44.6894L26.0442 39.9557L30.7809 44.6894L35.5146 49.4231L40.2483 54.1598L49.7187 44.6894L54.4554 49.4261Z" fill="#385161"/>
<path d="M59.9998 54.9707V62.8163L56.8161 66H47.3457L49.7185 63.6272L54.4522 58.8935L59.1889 54.1598L59.9998 54.9707Z" fill="#0C1740"/>
</g>
<path d="M84.584 26.168C83.352 26.168 82.248 25.968 81.272 25.568C80.296 25.168 79.512 24.576 78.92 23.792C78.344 23.008 78.04 22.064 78.008 20.96H82.376C82.44 21.584 82.656 22.064 83.024 22.4C83.392 22.72 83.872 22.88 84.464 22.88C85.072 22.88 85.552 22.744 85.904 22.472C86.256 22.184 86.432 21.792 86.432 21.296C86.432 20.88 86.288 20.536 86 20.264C85.728 19.992 85.384 19.768 84.968 19.592C84.568 19.416 83.992 19.216 83.24 18.992C82.152 18.656 81.264 18.32 80.576 17.984C79.888 17.648 79.296 17.152 78.8 16.496C78.304 15.84 78.056 14.984 78.056 13.928C78.056 12.36 78.624 11.136 79.76 10.256C80.896 9.36 82.376 8.912 84.2 8.912C86.056 8.912 87.552 9.36 88.688 10.256C89.824 11.136 90.432 12.368 90.512 13.952H86.072C86.04 13.408 85.84 12.984 85.472 12.68C85.104 12.36 84.632 12.2 84.056 12.2C83.56 12.2 83.16 12.336 82.856 12.608C82.552 12.864 82.4 13.24 82.4 13.736C82.4 14.28 82.656 14.704 83.168 15.008C83.68 15.312 84.48 15.64 85.568 15.992C86.656 16.36 87.536 16.712 88.208 17.048C88.896 17.384 89.488 17.872 89.984 18.512C90.48 19.152 90.728 19.976 90.728 20.984C90.728 21.944 90.48 22.816 89.984 23.6C89.504 24.384 88.8 25.008 87.872 25.472C86.944 25.936 85.848 26.168 84.584 26.168ZM95.3176 11.216C94.5976 11.216 94.0056 11.008 93.5416 10.592C93.0936 10.16 92.8696 9.632 92.8696 9.008C92.8696 8.368 93.0936 7.84 93.5416 7.424C94.0056 6.992 94.5976 6.776 95.3176 6.776C96.0216 6.776 96.5976 6.992 97.0456 7.424C97.5096 7.84 97.7416 8.368 97.7416 9.008C97.7416 9.632 97.5096 10.16 97.0456 10.592C96.5976 11.008 96.0216 11.216 95.3176 11.216ZM97.3576 12.608V26H93.2536V12.608H97.3576ZM105.78 26.192C104.612 26.192 103.572 25.992 102.66 25.592C101.748 25.192 101.028 24.648 100.5 23.96C99.9718 23.256 99.6758 22.472 99.6118 21.608H103.668C103.716 22.072 103.932 22.448 104.316 22.736C104.7 23.024 105.172 23.168 105.732 23.168C106.244 23.168 106.636 23.072 106.908 22.88C107.196 22.672 107.34 22.408 107.34 22.088C107.34 21.704 107.14 21.424 106.74 21.248C106.34 21.056 105.692 20.848 104.796 20.624C103.836 20.4 103.036 20.168 102.396 19.928C101.756 19.672 101.204 19.28 100.74 18.752C100.276 18.208 100.044 17.48 100.044 16.568C100.044 15.8 100.252 15.104 100.668 14.48C101.1 13.84 101.724 13.336 102.54 12.968C103.372 12.6 104.356 12.416 105.492 12.416C107.172 12.416 108.492 12.832 109.452 13.664C110.428 14.496 110.988 15.6 111.132 16.976H107.34C107.276 16.512 107.068 16.144 106.716 15.872C106.38 15.6 105.932 15.464 105.372 15.464C104.892 15.464 104.524 15.56 104.268 15.752C104.012 15.928 103.884 16.176 103.884 16.496C103.884 16.88 104.084 17.168 104.484 17.36C104.9 17.552 105.54 17.744 106.404 17.936C107.396 18.192 108.204 18.448 108.828 18.704C109.452 18.944 109.996 19.344 110.46 19.904C110.94 20.448 111.188 21.184 111.204 22.112C111.204 22.896 110.98 23.6 110.532 24.224C110.1 24.832 109.468 25.312 108.636 25.664C107.82 26.016 106.868 26.192 105.78 26.192ZM121.179 22.52V26H119.091C117.603 26 116.443 25.64 115.611 24.92C114.779 24.184 114.363 22.992 114.363 21.344V16.016H112.731V12.608H114.363V9.344H118.467V12.608H121.155V16.016H118.467V21.392C118.467 21.792 118.563 22.08 118.755 22.256C118.947 22.432 119.267 22.52 119.715 22.52H121.179ZM136.089 19.088C136.089 19.472 136.065 19.872 136.017 20.288H126.729C126.793 21.12 127.057 21.76 127.521 22.208C128.001 22.64 128.585 22.856 129.273 22.856C130.297 22.856 131.009 22.424 131.409 21.56H135.777C135.553 22.44 135.145 23.232 134.553 23.936C133.977 24.64 133.249 25.192 132.369 25.592C131.489 25.992 130.505 26.192 129.417 26.192C128.105 26.192 126.937 25.912 125.913 25.352C124.889 24.792 124.089 23.992 123.513 22.952C122.937 21.912 122.649 20.696 122.649 19.304C122.649 17.912 122.929 16.696 123.489 15.656C124.065 14.616 124.865 13.816 125.889 13.256C126.913 12.696 128.089 12.416 129.417 12.416C130.713 12.416 131.865 12.688 132.873 13.232C133.881 13.776 134.665 14.552 135.225 15.56C135.801 16.568 136.089 17.744 136.089 19.088ZM131.889 18.008C131.889 17.304 131.649 16.744 131.169 16.328C130.689 15.912 130.089 15.704 129.369 15.704C128.681 15.704 128.097 15.904 127.617 16.304C127.153 16.704 126.865 17.272 126.753 18.008H131.889ZM155.342 12.464C157.006 12.464 158.326 12.968 159.302 13.976C160.294 14.984 160.79 16.384 160.79 18.176V26H156.71V18.728C156.71 17.864 156.478 17.2 156.014 16.736C155.566 16.256 154.942 16.016 154.142 16.016C153.342 16.016 152.71 16.256 152.246 16.736C151.798 17.2 151.574 17.864 151.574 18.728V26H147.494V18.728C147.494 17.864 147.262 17.2 146.798 16.736C146.35 16.256 145.726 16.016 144.926 16.016C144.126 16.016 143.494 16.256 143.03 16.736C142.582 17.2 142.358 17.864 142.358 18.728V26H138.254V12.608H142.358V14.288C142.774 13.728 143.318 13.288 143.99 12.968C144.662 12.632 145.422 12.464 146.27 12.464C147.278 12.464 148.174 12.68 148.958 13.112C149.758 13.544 150.382 14.16 150.83 14.96C151.294 14.224 151.926 13.624 152.726 13.16C153.526 12.696 154.398 12.464 155.342 12.464ZM172.85 9.152V26H168.746V9.152H172.85ZM183.984 12.464C185.552 12.464 186.8 12.976 187.728 14C188.672 15.008 189.144 16.4 189.144 18.176V26H185.064V18.728C185.064 17.832 184.832 17.136 184.368 16.64C183.904 16.144 183.28 15.896 182.496 15.896C181.712 15.896 181.088 16.144 180.624 16.64C180.16 17.136 179.928 17.832 179.928 18.728V26H175.824V12.608H179.928V14.384C180.344 13.792 180.904 13.328 181.608 12.992C182.312 12.64 183.104 12.464 183.984 12.464ZM198.02 22.16L200.924 12.608H205.292L200.54 26H195.476L190.724 12.608H195.116L198.02 22.16ZM219.643 19.088C219.643 19.472 219.619 19.872 219.571 20.288H210.283C210.347 21.12 210.611 21.76 211.075 22.208C211.555 22.64 212.139 22.856 212.827 22.856C213.851 22.856 214.563 22.424 214.963 21.56H219.331C219.107 22.44 218.699 23.232 218.107 23.936C217.531 24.64 216.803 25.192 215.923 25.592C215.043 25.992 214.059 26.192 212.971 26.192C211.659 26.192 210.491 25.912 209.467 25.352C208.443 24.792 207.643 23.992 207.067 22.952C206.491 21.912 206.203 20.696 206.203 19.304C206.203 17.912 206.483 16.696 207.043 15.656C207.619 14.616 208.419 13.816 209.443 13.256C210.467 12.696 211.643 12.416 212.971 12.416C214.267 12.416 215.419 12.688 216.427 13.232C217.435 13.776 218.219 14.552 218.779 15.56C219.355 16.568 219.643 17.744 219.643 19.088ZM215.443 18.008C215.443 17.304 215.203 16.744 214.723 16.328C214.243 15.912 213.643 15.704 212.923 15.704C212.235 15.704 211.651 15.904 211.171 16.304C210.707 16.704 210.419 17.272 210.307 18.008H215.443ZM229.968 12.464C231.536 12.464 232.784 12.976 233.712 14C234.656 15.008 235.128 16.4 235.128 18.176V26H231.048V18.728C231.048 17.832 230.816 17.136 230.352 16.64C229.888 16.144 229.264 15.896 228.48 15.896C227.696 15.896 227.072 16.144 226.608 16.64C226.144 17.136 225.912 17.832 225.912 18.728V26H221.808V12.608H225.912V14.384C226.328 13.792 226.888 13.328 227.592 12.992C228.296 12.64 229.088 12.464 229.968 12.464ZM245.444 22.52V26H243.356C241.868 26 240.708 25.64 239.876 24.92C239.044 24.184 238.628 22.992 238.628 21.344V16.016H236.996V12.608H238.628V9.344H242.732V12.608H245.42V16.016H242.732V21.392C242.732 21.792 242.828 22.08 243.02 22.256C243.212 22.432 243.532 22.52 243.98 22.52H245.444ZM253.826 26.192C252.514 26.192 251.33 25.912 250.274 25.352C249.234 24.792 248.41 23.992 247.802 22.952C247.21 21.912 246.914 20.696 246.914 19.304C246.914 17.928 247.218 16.72 247.826 15.68C248.434 14.624 249.266 13.816 250.322 13.256C251.378 12.696 252.562 12.416 253.874 12.416C255.186 12.416 256.37 12.696 257.426 13.256C258.482 13.816 259.314 14.624 259.922 15.68C260.53 16.72 260.834 17.928 260.834 19.304C260.834 20.68 260.522 21.896 259.898 22.952C259.29 23.992 258.45 24.792 257.378 25.352C256.322 25.912 255.138 26.192 253.826 26.192ZM253.826 22.64C254.61 22.64 255.274 22.352 255.818 21.776C256.378 21.2 256.658 20.376 256.658 19.304C256.658 18.232 256.386 17.408 255.842 16.832C255.314 16.256 254.658 15.968 253.874 15.968C253.074 15.968 252.41 16.256 251.882 16.832C251.354 17.392 251.09 18.216 251.09 19.304C251.09 20.376 251.346 21.2 251.858 21.776C252.386 22.352 253.042 22.64 253.826 22.64ZM267.115 14.84C267.595 14.104 268.195 13.528 268.915 13.112C269.635 12.68 270.435 12.464 271.315 12.464V16.808H270.187C269.163 16.808 268.395 17.032 267.883 17.48C267.371 17.912 267.115 18.68 267.115 19.784V26H263.011V12.608H267.115V14.84ZM275.341 11.216C274.621 11.216 274.029 11.008 273.565 10.592C273.117 10.16 272.893 9.632 272.893 9.008C272.893 8.368 273.117 7.84 273.565 7.424C274.029 6.992 274.621 6.776 275.341 6.776C276.045 6.776 276.621 6.992 277.069 7.424C277.533 7.84 277.765 8.368 277.765 9.008C277.765 9.632 277.533 10.16 277.069 10.592C276.621 11.008 276.045 11.216 275.341 11.216ZM277.381 12.608V26H273.277V12.608H277.381ZM88.688 53.36C89.664 53.568 90.448 54.056 91.04 54.824C91.632 55.576 91.928 56.44 91.928 57.416C91.928 58.824 91.432 59.944 90.44 60.776C89.464 61.592 88.096 62 86.336 62H78.488V45.152H86.072C87.784 45.152 89.12 45.544 90.08 46.328C91.056 47.112 91.544 48.176 91.544 49.52C91.544 50.512 91.28 51.336 90.752 51.992C90.24 52.648 89.552 53.104 88.688 53.36ZM82.592 51.968H85.28C85.952 51.968 86.464 51.824 86.816 51.536C87.184 51.232 87.368 50.792 87.368 50.216C87.368 49.64 87.184 49.2 86.816 48.896C86.464 48.592 85.952 48.44 85.28 48.44H82.592V51.968ZM85.616 58.688C86.304 58.688 86.832 58.536 87.2 58.232C87.584 57.912 87.776 57.456 87.776 56.864C87.776 56.272 87.576 55.808 87.176 55.472C86.792 55.136 86.256 54.968 85.568 54.968H82.592V58.688H85.616ZM93.4923 55.28C93.4923 53.904 93.7483 52.696 94.2603 51.656C94.7883 50.616 95.5003 49.816 96.3963 49.256C97.2923 48.696 98.2923 48.416 99.3963 48.416C100.34 48.416 101.164 48.608 101.868 48.992C102.588 49.376 103.14 49.88 103.524 50.504V48.608H107.628V62H103.524V60.104C103.124 60.728 102.564 61.232 101.844 61.616C101.14 62 100.316 62.192 99.3723 62.192C98.2843 62.192 97.2923 61.912 96.3963 61.352C95.5003 60.776 94.7883 59.968 94.2603 58.928C93.7483 57.872 93.4923 56.656 93.4923 55.28ZM103.524 55.304C103.524 54.28 103.236 53.472 102.66 52.88C102.1 52.288 101.412 51.992 100.596 51.992C99.7803 51.992 99.0843 52.288 98.5083 52.88C97.9483 53.456 97.6683 54.256 97.6683 55.28C97.6683 56.304 97.9483 57.12 98.5083 57.728C99.0843 58.32 99.7803 58.616 100.596 58.616C101.412 58.616 102.1 58.32 102.66 57.728C103.236 57.136 103.524 56.328 103.524 55.304ZM114.701 50.84C115.181 50.104 115.781 49.528 116.501 49.112C117.221 48.68 118.021 48.464 118.901 48.464V52.808H117.773C116.749 52.808 115.981 53.032 115.469 53.48C114.957 53.912 114.701 54.68 114.701 55.784V62H110.597V48.608H114.701V50.84ZM120.047 55.28C120.047 53.904 120.303 52.696 120.815 51.656C121.343 50.616 122.055 49.816 122.951 49.256C123.847 48.696 124.847 48.416 125.951 48.416C126.895 48.416 127.719 48.608 128.423 48.992C129.143 49.376 129.695 49.88 130.079 50.504V48.608H134.183V62H130.079V60.104C129.679 60.728 129.119 61.232 128.399 61.616C127.695 62 126.871 62.192 125.927 62.192C124.839 62.192 123.847 61.912 122.951 61.352C122.055 60.776 121.343 59.968 120.815 58.928C120.303 57.872 120.047 56.656 120.047 55.28ZM130.079 55.304C130.079 54.28 129.791 53.472 129.215 52.88C128.655 52.288 127.967 51.992 127.151 51.992C126.335 51.992 125.639 52.288 125.063 52.88C124.503 53.456 124.223 54.256 124.223 55.28C124.223 56.304 124.503 57.12 125.063 57.728C125.639 58.32 126.335 58.616 127.151 58.616C127.967 58.616 128.655 58.32 129.215 57.728C129.791 57.136 130.079 56.328 130.079 55.304ZM145.312 48.464C146.88 48.464 148.128 48.976 149.056 50C150 51.008 150.472 52.4 150.472 54.176V62H146.392V54.728C146.392 53.832 146.16 53.136 145.696 52.64C145.232 52.144 144.608 51.896 143.824 51.896C143.04 51.896 142.416 52.144 141.952 52.64C141.488 53.136 141.256 53.832 141.256 54.728V62H137.152V48.608H141.256V50.384C141.672 49.792 142.232 49.328 142.936 48.992C143.64 48.64 144.432 48.464 145.312 48.464ZM158.412 48.416C159.356 48.416 160.18 48.608 160.884 48.992C161.604 49.376 162.156 49.88 162.54 50.504V48.608H166.644V61.976C166.644 63.208 166.396 64.32 165.9 65.312C165.42 66.32 164.676 67.12 163.668 67.712C162.676 68.304 161.436 68.6 159.948 68.6C157.964 68.6 156.356 68.128 155.124 67.184C153.892 66.256 153.188 64.992 153.012 63.392H157.068C157.196 63.904 157.5 64.304 157.98 64.592C158.46 64.896 159.052 65.048 159.756 65.048C160.604 65.048 161.276 64.8 161.772 64.304C162.284 63.824 162.54 63.048 162.54 61.976V60.08C162.14 60.704 161.588 61.216 160.884 61.616C160.18 62 159.356 62.192 158.412 62.192C157.308 62.192 156.308 61.912 155.412 61.352C154.516 60.776 153.804 59.968 153.276 58.928C152.764 57.872 152.508 56.656 152.508 55.28C152.508 53.904 152.764 52.696 153.276 51.656C153.804 50.616 154.516 49.816 155.412 49.256C156.308 48.696 157.308 48.416 158.412 48.416ZM162.54 55.304C162.54 54.28 162.252 53.472 161.676 52.88C161.116 52.288 160.428 51.992 159.612 51.992C158.796 51.992 158.1 52.288 157.524 52.88C156.964 53.456 156.684 54.256 156.684 55.28C156.684 56.304 156.964 57.12 157.524 57.728C158.1 58.32 158.796 58.616 159.612 58.616C160.428 58.616 161.116 58.32 161.676 57.728C162.252 57.136 162.54 56.328 162.54 55.304ZM178.803 45.152V62H174.699V45.152H178.803ZM181.081 53.552C181.081 51.888 181.441 50.408 182.161 49.112C182.881 47.8 183.881 46.784 185.161 46.064C186.457 45.328 187.921 44.96 189.553 44.96C191.553 44.96 193.265 45.488 194.689 46.544C196.113 47.6 197.065 49.04 197.545 50.864H193.033C192.697 50.16 192.217 49.624 191.593 49.256C190.985 48.888 190.289 48.704 189.505 48.704C188.241 48.704 187.217 49.144 186.433 50.024C185.649 50.904 185.257 52.08 185.257 53.552C185.257 55.024 185.649 56.2 186.433 57.08C187.217 57.96 188.241 58.4 189.505 58.4C190.289 58.4 190.985 58.216 191.593 57.848C192.217 57.48 192.697 56.944 193.033 56.24H197.545C197.065 58.064 196.113 59.504 194.689 60.56C193.265 61.6 191.553 62.12 189.553 62.12C187.921 62.12 186.457 61.76 185.161 61.04C183.881 60.304 182.881 59.288 182.161 57.992C181.441 56.696 181.081 55.216 181.081 53.552ZM204.162 58.832H209.538V62H200.058V45.152H204.162V58.832ZM210.68 55.28C210.68 53.904 210.936 52.696 211.448 51.656C211.976 50.616 212.688 49.816 213.584 49.256C214.48 48.696 215.48 48.416 216.584 48.416C217.528 48.416 218.352 48.608 219.056 48.992C219.776 49.376 220.328 49.88 220.712 50.504V48.608H224.816V62H220.712V60.104C220.312 60.728 219.752 61.232 219.032 61.616C218.328 62 217.504 62.192 216.56 62.192C215.472 62.192 214.48 61.912 213.584 61.352C212.688 60.776 211.976 59.968 211.448 58.928C210.936 57.872 210.68 56.656 210.68 55.28ZM220.712 55.304C220.712 54.28 220.424 53.472 219.848 52.88C219.288 52.288 218.6 51.992 217.784 51.992C216.968 51.992 216.272 52.288 215.696 52.88C215.136 53.456 214.856 54.256 214.856 55.28C214.856 56.304 215.136 57.12 215.696 57.728C216.272 58.32 216.968 58.616 217.784 58.616C218.6 58.616 219.288 58.32 219.848 57.728C220.424 57.136 220.712 56.328 220.712 55.304ZM231.889 50.504C232.273 49.88 232.825 49.376 233.545 48.992C234.265 48.608 235.089 48.416 236.017 48.416C237.121 48.416 238.121 48.696 239.017 49.256C239.913 49.816 240.617 50.616 241.129 51.656C241.657 52.696 241.921 53.904 241.921 55.28C241.921 56.656 241.657 57.872 241.129 58.928C240.617 59.968 239.913 60.776 239.017 61.352C238.121 61.912 237.121 62.192 236.017 62.192C235.073 62.192 234.249 62.008 233.545 61.64C232.841 61.256 232.289 60.752 231.889 60.128V62H227.785V44.24H231.889V50.504ZM237.745 55.28C237.745 54.256 237.457 53.456 236.881 52.88C236.321 52.288 235.625 51.992 234.793 51.992C233.977 51.992 233.281 52.288 232.705 52.88C232.145 53.472 231.865 54.28 231.865 55.304C231.865 56.328 232.145 57.136 232.705 57.728C233.281 58.32 233.977 58.616 234.793 58.616C235.609 58.616 236.305 58.32 236.881 57.728C237.457 57.12 237.745 56.304 237.745 55.28ZM249.522 62.192C248.354 62.192 247.314 61.992 246.402 61.592C245.49 61.192 244.77 60.648 244.242 59.96C243.714 59.256 243.418 58.472 243.354 57.608H247.41C247.458 58.072 247.674 58.448 248.058 58.736C248.442 59.024 248.914 59.168 249.474 59.168C249.986 59.168 250.378 59.072 250.65 58.88C250.938 58.672 251.082 58.408 251.082 58.088C251.082 57.704 250.882 57.424 250.482 57.248C250.082 57.056 249.434 56.848 248.538 56.624C247.578 56.4 246.778 56.168 246.138 55.928C245.498 55.672 244.946 55.28 244.482 54.752C244.018 54.208 243.786 53.48 243.786 52.568C243.786 51.8 243.994 51.104 244.41 50.48C244.842 49.84 245.466 49.336 246.282 48.968C247.114 48.6 248.098 48.416 249.234 48.416C250.914 48.416 252.234 48.832 253.194 49.664C254.17 50.496 254.73 51.6 254.874 52.976H251.082C251.018 52.512 250.81 52.144 250.458 51.872C250.122 51.6 249.674 51.464 249.114 51.464C248.634 51.464 248.266 51.56 248.01 51.752C247.754 51.928 247.626 52.176 247.626 52.496C247.626 52.88 247.826 53.168 248.226 53.36C248.642 53.552 249.282 53.744 250.146 53.936C251.138 54.192 251.946 54.448 252.57 54.704C253.194 54.944 253.738 55.344 254.202 55.904C254.682 56.448 254.93 57.184 254.946 58.112C254.946 58.896 254.722 59.6 254.274 60.224C253.842 60.832 253.21 61.312 252.378 61.664C251.562 62.016 250.61 62.192 249.522 62.192Z" fill="black"/>
<defs>
<clipPath id="clip0_854_12953">
<rect width="60" height="60" fill="white" transform="translate(0 6)"/>
</clipPath>
</defs>
</svg>
