<?xml version="1.0" encoding="UTF-8"?>
<svg id="Layer_1" data-name="Layer 1" xmlns="http://www.w3.org/2000/svg" viewBox="0 0 228.38 228.38">
  <defs>
    <style>
      .cls-1 {
        fill: #fff;
      }

      .cls-2 {
        fill: #ccd5ec;
      }

      .cls-3 {
        fill: #385161;
      }
    </style>
  </defs>
  <polygon class="cls-1" points="117.16 39.13 99.14 57.16 45.08 3.1 27.05 21.12 9.03 39.13 27.05 57.15 45.07 75.18 63.1 93.2 45.08 111.23 27.05 129.25 9.03 147.26 0 138.23 0 102.2 9.03 111.22 27.05 93.2 0 66.15 0 0 78.03 0 81.11 3.09 99.13 21.12 117.16 39.13"/>
  <polygon class="cls-2" points="207.27 57.16 189.25 75.18 171.23 57.15 153.2 75.18 135.18 93.2 117.16 111.22 99.13 129.25 45.07 183.31 27.05 201.33 45.08 219.36 36.05 228.38 18.06 228.38 9.03 219.35 0 210.33 0 174.28 9.03 183.31 27.05 165.28 45.07 147.26 63.1 129.25 81.11 111.22 99.13 93.2 117.16 75.18 135.18 57.15 153.2 39.13 135.18 21.12 117.16 3.09 120.25 0 150.11 0 207.27 57.16"/>
  <polygon class="cls-3" points="228.38 6.17 228.38 36.05 225.29 39.13 207.26 21.12 189.25 3.09 192.33 0 222.19 0 225.29 3.09 228.38 6.17"/>
  <polygon class="cls-3" points="228.38 78.27 228.38 108.13 225.29 111.22 207.26 129.25 189.25 147.26 153.21 111.23 171.23 93.2 189.25 111.22 207.26 93.2 225.29 75.18 228.38 78.27"/>
  <polygon class="cls-3" points="207.27 165.29 189.25 183.31 171.23 201.33 153.21 219.36 81.11 147.26 99.13 129.25 117.16 147.26 135.18 165.28 153.2 183.31 189.25 147.26 207.27 165.29"/>
  <polygon class="cls-1" points="228.38 186.4 228.38 216.26 216.26 228.38 180.21 228.38 189.25 219.35 207.26 201.33 225.29 183.31 228.38 186.4"/>
</svg>